<?xml version="1.0" encoding="UTF-8"?>
<svg id="Layer_1" xmlns="http://www.w3.org/2000/svg" version="1.1" viewBox="0 0 32 32">
  <!-- Generator: Adobe Illustrator 29.5.1, SVG Export Plug-In . SVG Version: 2.1.0 Build 141)  -->
  <defs>
    <style>
      .st0 {
        display: none;
      }

      .st0, .st1 {
        fill: #fff;
      }

      .st2 {
        fill: none;
        stroke: #fff;
        stroke-miterlimit: 10;
        stroke-width: 2px;
      }
    </style>
  </defs>
  <circle class="st1" cx="16" cy="16" r="2"/>
  <line class="st2" x1="5.09" y1="5.09" x2="26.91" y2="26.91"/>
  <rect class="st0" x="14.5" y=".57" width="3" height="30.86" transform="translate(-6.63 16) rotate(-45)"/>
  <g>
    <path class="st1" d="M31.89,15.53c-3.07-5.74-8.27-8.53-15.89-8.53-2.37,0-4.38.29-6.13.75l1.65,1.65c1.32-.25,2.8-.4,4.48-.4,6.61,0,11.16,2.3,13.88,7.04-.87,1.78-2.64,4.12-6.14,5.58l1.49,1.49c4.13-1.99,5.96-5.06,6.68-6.72l.19-.44-.23-.43Z"/>
    <path class="st1" d="M20.48,22.6c-1.32.25-2.8.4-4.48.4-6.61,0-11.16-2.3-13.88-7.04.87-1.78,2.64-4.12,6.14-5.58l-1.49-1.49C2.64,10.87.8,13.94.08,15.6l-.19.44.23.43c3.07,5.74,8.27,8.53,15.89,8.53,2.37,0,4.38-.29,6.13-.75l-1.65-1.65Z"/>
  </g>
  <g>
    <path class="st1" d="M17.93,20.05c-.59.28-1.24.45-1.93.45-2.48,0-4.5-2.02-4.5-4.5,0-.69.17-1.34.45-1.93l-1.48-1.48c-.61.99-.97,2.16-.97,3.41,0,3.59,2.92,6.5,6.5,6.5,1.25,0,2.42-.36,3.41-.97l-1.48-1.48Z"/>
    <path class="st1" d="M14.07,11.95c.59-.28,1.24-.45,1.93-.45,2.48,0,4.5,2.02,4.5,4.5,0,.69-.17,1.34-.45,1.93l1.48,1.48c.61-.99.97-2.16.97-3.41,0-3.59-2.92-6.5-6.5-6.5-1.25,0-2.42.36-3.41.97l1.48,1.48Z"/>
  </g>
</svg>