<?xml version="1.0" encoding="UTF-8" standalone="no"?>
<svg width="25px" height="24px" viewBox="0 0 25 24" version="1.1" xmlns="http://www.w3.org/2000/svg" xmlns:xlink="http://www.w3.org/1999/xlink">
    <!-- Generator: Sketch 48.2 (47327) - http://www.bohemiancoding.com/sketch -->
    <title>SF</title>
    <desc>Created with Sketch.</desc>
    <defs></defs>
    <g id="Modes-of-transport-and-lines" stroke="none" stroke-width="1" fill="none" fill-rule="evenodd" transform="translate(-737.000000, -1145.000000)">
        <g id="Subway-lines" transform="translate(171.000000, 647.000000)">
            <g id="Page-1" transform="translate(539.000000, 498.000000)">
                <g id="SF" transform="translate(27.000000, 0.000000)">
                    <path d="M0.4408,12 C0.4408,5.373 5.8138,0 12.4408,0 C19.0688,0 24.4408,5.373 24.4408,12 C24.4408,18.627 19.0688,24 12.4408,24 C5.8138,24 0.4408,18.627 0.4408,12" id="Fill-5" fill="#808183"></path>
                    <path d="M9.7143,17.9746 C8.2293,17.9746 7.0463,17.6356 6.1983,16.9686 C5.3843,16.3266 4.9593,15.4356 4.9353,14.3226 L7.0453,14.3226 C7.1253,14.8226 7.2763,15.2056 7.4923,15.4666 C7.9103,15.9616 8.6263,16.2126 9.6193,16.2126 C10.2083,16.2126 10.6933,16.1486 11.0643,16.0206 C11.7923,15.7666 12.1603,15.2856 12.1603,14.5896 C12.1603,14.1736 11.9753,13.8486 11.6103,13.6216 C11.2653,13.4136 10.7173,13.2286 9.9793,13.0706 L8.7333,12.7966 C7.5263,12.5306 6.6903,12.2396 6.2423,11.9296 C5.4983,11.4196 5.1213,10.6096 5.1213,9.5196 C5.1213,8.5236 5.4933,7.6836 6.2273,7.0236 C6.9643,6.3616 8.0683,6.0256 9.5063,6.0256 C10.7073,6.0256 11.7453,6.3436 12.5903,6.9706 C13.4033,7.5746 13.8473,8.4556 13.9093,9.5916 L11.7943,9.5916 C11.7273,8.9126 11.3993,8.4196 10.8183,8.1256 C10.4203,7.9266 9.9223,7.8266 9.3393,7.8266 C8.6863,7.8266 8.1553,7.9566 7.7623,8.2176 C7.3553,8.4856 7.1493,8.8666 7.1493,9.3476 C7.1493,9.7966 7.3553,10.1366 7.7613,10.3576 C8.0093,10.4966 8.5183,10.6566 9.3173,10.8436 L11.3363,11.3206 C12.2023,11.5236 12.8603,11.7976 13.2903,12.1366 C13.9473,12.6576 14.2813,13.4216 14.2813,14.4106 C14.2813,15.4266 13.8823,16.2836 13.0963,16.9546 C12.3053,17.6316 11.1673,17.9746 9.7143,17.9746" id="Fill-7" fill="#FFFFFF"></path>
                    <polygon id="Stroke-11" stroke="#FFFFFF" stroke-width="0.2" points="15.7358 11.8477 15.7358 6.0257 19.8628 6.0257 19.8628 6.9647 16.8648 6.9647 16.8648 8.4327 19.4928 8.4327 19.4928 9.3607 16.8648 9.3607 16.8648 11.8477"></polygon>
                </g>
                <polygon id="Fill-9" fill="#FFFFFF" points="42.7358 11.8477 42.7358 6.0257 46.8628 6.0257 46.8628 6.9647 43.8648 6.9647 43.8648 8.4327 46.4928 8.4327 46.4928 9.3607 43.8648 9.3607 43.8648 11.8477"></polygon>
            </g>
        </g>
    </g>
</svg>