<?xml version="1.0" encoding="UTF-8" standalone="no"?>
<svg width="24px" height="25px" viewBox="0 0 24 25" version="1.1" xmlns="http://www.w3.org/2000/svg" xmlns:xlink="http://www.w3.org/1999/xlink">
    <!-- Generator: Sketch 47 (45396) - http://www.bohemiancoding.com/sketch -->
    <title>S</title>
    <desc>Created with Sketch.</desc>
    <defs></defs>
    <g id="Page-1" stroke="none" stroke-width="1" fill="none" fill-rule="evenodd">
        <g id="Modes-of-transport-and-lines" transform="translate(-710.000000, -1121.000000)">
            <g id="S" transform="translate(710.000000, 1121.000000)">
                <path d="M0.0004,12.6993 C0.0004,6.0713 5.3724,0.6993 12.0004,0.6993 C18.6274,0.6993 24.0004,6.0713 24.0004,12.6993 C24.0004,19.3263 18.6274,24.6993 12.0004,24.6993 C5.3724,24.6993 0.0004,19.3263 0.0004,12.6993" id="Fill-94" fill="#808183"></path>
                <path d="M12.1068,18.6739 C10.6218,18.6739 9.4388,18.3349 8.5908,17.6679 C7.7768,17.0259 7.3518,16.1349 7.3278,15.0219 L9.4378,15.0219 C9.5178,15.5219 9.6688,15.9049 9.8848,16.1659 C10.3028,16.6609 11.0188,16.9119 12.0118,16.9119 C12.6008,16.9119 13.0858,16.8479 13.4568,16.7199 C14.1848,16.4659 14.5528,15.9849 14.5528,15.2889 C14.5528,14.8729 14.3678,14.5479 14.0028,14.3209 C13.6578,14.1129 13.1098,13.9279 12.3718,13.7699 L11.1258,13.4959 C9.9188,13.2299 9.0828,12.9389 8.6348,12.6289 C7.8908,12.1189 7.5138,11.3089 7.5138,10.2189 C7.5138,9.2229 7.8858,8.3829 8.6198,7.7229 C9.3568,7.0609 10.4608,6.7249 11.8988,6.7249 C13.0998,6.7249 14.1378,7.0429 14.9828,7.6699 C15.7958,8.2739 16.2398,9.1549 16.3018,10.2909 L14.1868,10.2909 C14.1198,9.6119 13.7918,9.1189 13.2108,8.8249 C12.8128,8.6259 12.3148,8.5259 11.7318,8.5259 C11.0788,8.5259 10.5478,8.6559 10.1548,8.9169 C9.7478,9.1849 9.5418,9.5659 9.5418,10.0469 C9.5418,10.4959 9.7478,10.8359 10.1538,11.0569 C10.4018,11.1959 10.9108,11.3559 11.7098,11.5429 L13.7288,12.0199 C14.5948,12.2229 15.2528,12.4969 15.6828,12.8359 C16.3398,13.3569 16.6738,14.1209 16.6738,15.1099 C16.6738,16.1259 16.2748,16.9829 15.4888,17.6539 C14.6978,18.3309 13.5598,18.6739 12.1068,18.6739" id="Fill-95" fill="#FFFFFF"></path>
            </g>
        </g>
    </g>
</svg>