<?xml version="1.0" encoding="UTF-8" standalone="no"?>
<svg width="25px" height="24px" viewBox="0 0 25 24" version="1.1" xmlns="http://www.w3.org/2000/svg" xmlns:xlink="http://www.w3.org/1999/xlink">
    <!-- Generator: Sketch 48.2 (47327) - http://www.bohemiancoding.com/sketch -->
    <title>SR</title>
    <desc>Created with Sketch.</desc>
    <defs></defs>
    <g id="Modes-of-transport-and-lines" stroke="none" stroke-width="1" fill="none" fill-rule="evenodd" transform="translate(-764.000000, -1145.000000)">
        <g id="Subway-lines" transform="translate(171.000000, 647.000000)">
            <g id="Page-1" transform="translate(539.000000, 498.000000)">
                <g id="SR" transform="translate(54.000000, 0.000000)">
                    <path d="M0.8266,12 C0.8266,5.373 6.1986,0 12.8266,0 C19.4536,0 24.8266,5.373 24.8266,12 C24.8266,18.627 19.4536,24 12.8266,24 C6.1986,24 0.8266,18.627 0.8266,12" id="Fill-13" fill="#808183"></path>
                    <path d="M10.1,17.9746 C8.615,17.9746 7.432,17.6356 6.584,16.9686 C5.77,16.3266 5.345,15.4356 5.321,14.3226 L7.431,14.3226 C7.511,14.8226 7.662,15.2056 7.878,15.4666 C8.296,15.9616 9.012,16.2126 10.005,16.2126 C10.594,16.2126 11.079,16.1486 11.45,16.0206 C12.178,15.7666 12.546,15.2856 12.546,14.5896 C12.546,14.1736 12.361,13.8486 11.996,13.6216 C11.651,13.4136 11.103,13.2286 10.365,13.0706 L9.119,12.7966 C7.912,12.5306 7.076,12.2396 6.628,11.9296 C5.884,11.4196 5.507,10.6096 5.507,9.5196 C5.507,8.5236 5.879,7.6836 6.613,7.0236 C7.35,6.3616 8.454,6.0256 9.892,6.0256 C11.093,6.0256 12.131,6.3436 12.976,6.9706 C13.789,7.5746 14.233,8.4556 14.295,9.5916 L12.18,9.5916 C12.113,8.9126 11.785,8.4196 11.204,8.1256 C10.806,7.9266 10.308,7.8266 9.725,7.8266 C9.072,7.8266 8.541,7.9566 8.148,8.2176 C7.741,8.4856 7.535,8.8666 7.535,9.3476 C7.535,9.7966 7.741,10.1366 8.147,10.3576 C8.395,10.4966 8.904,10.6566 9.703,10.8436 L11.722,11.3206 C12.588,11.5236 13.246,11.7976 13.676,12.1366 C14.333,12.6576 14.667,13.4216 14.667,14.4106 C14.667,15.4266 14.268,16.2836 13.482,16.9546 C12.691,17.6316 11.553,17.9746 10.1,17.9746" id="Fill-16" fill="#FFFFFF"></path>
                    <path d="M17.4242,7.1504 L17.4242,8.8904 L18.8812,8.8904 C19.1702,8.8904 19.3872,8.8554 19.5312,8.7854 C19.7872,8.6624 19.9162,8.4194 19.9162,8.0554 C19.9162,7.6634 19.7922,7.3994 19.5442,7.2644 C19.4052,7.1884 19.1962,7.1504 18.9182,7.1504 L17.4242,7.1504 Z M20.2222,6.1924 C20.4602,6.2954 20.6622,6.4464 20.8282,6.6454 C20.9652,6.8094 21.0732,6.9914 21.1532,7.1904 C21.2342,7.3894 21.2742,7.6164 21.2742,7.8714 C21.2742,8.1784 21.1952,8.4814 21.0412,8.7784 C20.8852,9.0764 20.6292,9.2864 20.2722,9.4094 C20.5702,9.5294 20.7822,9.7004 20.9062,9.9214 C21.0312,10.1424 21.0942,10.4804 21.0942,10.9344 L21.0942,11.3694 C21.0942,11.6654 21.1062,11.8664 21.1292,11.9714 C21.1652,12.1374 21.2482,12.2604 21.3792,12.3404 L21.3792,12.5034 L19.8852,12.5034 C19.8442,12.3594 19.8152,12.2434 19.7972,12.1554 C19.7622,11.9744 19.7422,11.7884 19.7402,11.5974 L19.7312,10.9954 C19.7262,10.5834 19.6542,10.3074 19.5172,10.1694 C19.3802,10.0324 19.1232,9.9634 18.7462,9.9634 L17.4242,9.9634 L17.4242,12.5034 L16.1022,12.5034 L16.1022,6.0254 L19.1992,6.0254 C19.6432,6.0344 19.9832,6.0894 20.2222,6.1924 Z" id="Stroke-20" stroke="#FFFFFF" stroke-width="0.1"></path>
                </g>
                <g id="Group-15" transform="translate(54.000000, 0.000000)"></g>
                <path d="M71.4242,7.1504 L71.4242,8.8904 L72.8812,8.8904 C73.1702,8.8904 73.3872,8.8554 73.5312,8.7854 C73.7872,8.6624 73.9162,8.4194 73.9162,8.0554 C73.9162,7.6634 73.7922,7.3994 73.5442,7.2644 C73.4052,7.1884 73.1962,7.1504 72.9182,7.1504 L71.4242,7.1504 Z M74.2222,6.1924 C74.4602,6.2954 74.6622,6.4464 74.8282,6.6454 C74.9652,6.8094 75.0732,6.9914 75.1532,7.1904 C75.2342,7.3894 75.2742,7.6164 75.2742,7.8714 C75.2742,8.1784 75.1952,8.4814 75.0412,8.7784 C74.8852,9.0764 74.6292,9.2864 74.2722,9.4094 C74.5702,9.5294 74.7822,9.7004 74.9062,9.9214 C75.0312,10.1424 75.0942,10.4804 75.0942,10.9344 L75.0942,11.3694 C75.0942,11.6654 75.1062,11.8664 75.1292,11.9714 C75.1652,12.1374 75.2482,12.2604 75.3792,12.3404 L75.3792,12.5034 L73.8852,12.5034 C73.8442,12.3594 73.8152,12.2434 73.7972,12.1554 C73.7622,11.9744 73.7422,11.7884 73.7402,11.5974 L73.7312,10.9954 C73.7262,10.5834 73.6542,10.3074 73.5172,10.1694 C73.3802,10.0324 73.1232,9.9634 72.7462,9.9634 L71.4242,9.9634 L71.4242,12.5034 L70.1022,12.5034 L70.1022,6.0254 L73.1992,6.0254 C73.6432,6.0344 73.9832,6.0894 74.2222,6.1924 Z" id="Fill-18" fill="#FFFFFF"></path>
            </g>
        </g>
    </g>
</svg>